<?xml version="1.0" standalone="no"?>
<!DOCTYPE svg PUBLIC "-//W3C//DTD SVG 20010904//EN"
 "http://www.w3.org/TR/2001/REC-SVG-20010904/DTD/svg10.dtd">
<svg version="1.0" xmlns="http://www.w3.org/2000/svg"
 width="640.000000pt" height="1280.000000pt" viewBox="0 0 640.000000 1280.000000"
 preserveAspectRatio="xMidYMid meet">
<metadata>
Created by potrace 1.15, written by Peter Selinger 2001-2017
</metadata>
<g transform="translate(0.000000,1280.000000) scale(0.100000,-0.100000)"
fill="#000000" stroke="none">
<path d="M2930 12789 c-579 -51 -1121 -248 -1594 -582 -413 -291 -769 -705
-993 -1152 -210 -419 -318 -840 -330 -1295 -7 -241 4 -329 72 -595 118 -459
312 -971 875 -2310 705 -1675 941 -2278 1245 -3190 366 -1097 778 -2599 962
-3508 15 -75 30 -137 33 -137 3 0 16 53 29 117 61 316 276 1203 421 1733 274
1007 565 1914 897 2798 187 500 386 989 876 2153 669 1588 869 2135 947 2592
46 272 12 694 -86 1053 -188 694 -630 1324 -1220 1741 -552 390 -1211 597
-1884 592 -85 -1 -198 -5 -250 -10z"/>
</g>
</svg>
