<svg width="33" height="34" viewBox="0 0 33 34" fill="none" xmlns="http://www.w3.org/2000/svg">
<path d="M16.5118 33.0642C25.618 33.0642 33 25.6822 33 16.576C33 7.46989 25.618 0.0878906 16.5118 0.0878906C7.40568 0.0878906 0.0236816 7.46989 0.0236816 16.576C0.0236816 25.6822 7.40568 33.0642 16.5118 33.0642Z" fill="black"/>
<path fill-rule="evenodd" clip-rule="evenodd" d="M7.48718 16.402C12.2938 14.3078 15.499 12.9272 17.1027 12.2602C21.6816 10.3557 22.6331 10.0248 23.2532 10.0139C23.3896 10.0115 23.6946 10.0453 23.8922 10.2056C24.059 10.3409 24.1049 10.5238 24.1268 10.6521C24.1488 10.7804 24.1761 11.0728 24.1544 11.3012C23.9063 13.9084 22.8326 20.2353 22.2864 23.1553C22.0552 24.3909 21.6001 24.8052 21.1596 24.8458C20.2021 24.9339 19.475 24.213 18.5476 23.6051C17.0964 22.6538 16.2766 22.0616 14.868 21.1334C13.2401 20.0606 14.2954 19.471 15.2231 18.5074C15.4659 18.2553 19.6847 14.418 19.7663 14.0699C19.7765 14.0263 19.786 13.8641 19.6896 13.7784C19.5932 13.6927 19.4509 13.722 19.3482 13.7453C19.2027 13.7783 16.8844 15.3106 12.3934 18.3421C11.7354 18.794 11.1394 19.0142 10.6054 19.0026C10.0166 18.9899 8.8842 18.6698 8.04234 18.3961C7.00977 18.0605 6.1891 17.883 6.26056 17.313C6.29779 17.0161 6.70666 16.7124 7.48718 16.402Z" fill="white"/>
<defs>
<linearGradient id="paint0_linear_11_4220" x1="16.5118" y1="0.0878906" x2="16.5118" y2="32.8196" gradientUnits="userSpaceOnUse">
<stop stop-color="#2AABEE"/>
<stop offset="1" stop-color="#229ED9"/>
</linearGradient>
</defs>
</svg>
